<?xml version="1.0" standalone="no"?>
<!DOCTYPE svg PUBLIC "-//W3C//DTD SVG 1.1//EN" "http://www.w3.org/Graphics/SVG/1.1/DTD/svg11.dtd">
<svg version="1.1" xmlns="http://www.w3.org/2000/svg" viewBox="0 0 665.473491583321 598.4000396728516" width="665.473491583321" height="598.4000396728516"><!-- svg-source:excalidraw --><metadata></metadata><defs><style class="style-fonts">
      </style></defs><g stroke-linecap="round"><g transform="translate(289.2000732421875 114.8000259399414) rotate(0 57.199981689453125 172.39999389648438)" fill-rule="evenodd"><path d="M0 0 L-132 344.8 L246.4 216.8 L0 0" stroke="none" stroke-width="0" fill="#fa6969" fill-rule="evenodd"></path><path d="M0 0 C-36.64 95.7, -73.28 191.41, -132 344.8 M0 0 C-46.5 121.46, -93 242.92, -132 344.8 M-132 344.8 C-21.96 307.58, 88.09 270.35, 246.4 216.8 M-132 344.8 C-43.37 314.82, 45.26 284.84, 246.4 216.8 M246.4 216.8 C157.49 138.57, 68.59 60.35, 0 0 M246.4 216.8 C191.3 168.32, 136.2 119.84, 0 0 M0 0 C0 0, 0 0, 0 0 M0 0 C0 0, 0 0, 0 0" stroke="#ff8383" stroke-width="1" fill="none"></path></g></g><mask></mask><g stroke-linecap="round" transform="translate(10 10) rotate(0 322.7367457916605 289.2000198364258)"><path d="M0 0 C255.29 0, 510.57 0, 645.47 0 M0 0 C235.46 0, 470.92 0, 645.47 0 M645.47 0 C645.47 202.25, 645.47 404.51, 645.47 578.4 M645.47 0 C645.47 206.86, 645.47 413.71, 645.47 578.4 M645.47 578.4 C454.94 578.4, 264.41 578.4, 0 578.4 M645.47 578.4 C412.43 578.4, 179.39 578.4, 0 578.4 M0 578.4 C0 461.49, 0 344.58, 0 0 M0 578.4 C0 455.44, 0 332.48, 0 0" stroke="#d3d3d3" stroke-width="1" fill="none"></path></g></svg>