<?xml version="1.0" standalone="no"?>
<!DOCTYPE svg PUBLIC "-//W3C//DTD SVG 1.1//EN" "http://www.w3.org/Graphics/SVG/1.1/DTD/svg11.dtd">
<svg version="1.1" xmlns="http://www.w3.org/2000/svg" viewBox="0 0 681.6000366210938 427.20001220703125" width="681.6000366210938" height="427.20001220703125"><!-- svg-source:excalidraw --><metadata></metadata><defs><style class="style-fonts">
      </style></defs><g stroke-linecap="round"><g transform="translate(10 416.4000244140625) rotate(0 252.79998779296875 -185.6000213623047)"><path d="M0 0 C28 -38.13, 83.73 -166.93, 168 -228.8 C252.27 -290.67, 449.33 -347.47, 505.6 -371.2 M0 0 C28 -38.13, 83.73 -166.93, 168 -228.8 C252.27 -290.67, 449.33 -347.47, 505.6 -371.2" stroke="#56a2e8" stroke-width="2" fill="none"></path></g></g><mask></mask><g stroke-linecap="round"><g transform="translate(11.60009765625 417.20001220703125) rotate(0 0 -203.60000610351562)"><path d="M0 0 C0 -67.87, 0 -339.33, 0 -407.2 M0 0 C0 -67.87, 0 -339.33, 0 -407.2" stroke="#39994b" stroke-width="1" fill="none"></path></g><g transform="translate(11.60009765625 417.20001220703125) rotate(0 0 -203.60000610351562)"><path d="M8.55 -383.71 C5.67 -391.63, 2.79 -399.55, 0 -407.2 M8.55 -383.71 C5.48 -392.14, 2.41 -400.56, 0 -407.2" stroke="#39994b" stroke-width="1" fill="none"></path></g><g transform="translate(11.60009765625 417.20001220703125) rotate(0 0 -203.60000610351562)"><path d="M-8.55 -383.71 C-5.67 -391.63, -2.79 -399.55, 0 -407.2 M-8.55 -383.71 C-5.48 -392.14, -2.41 -400.56, 0 -407.2" stroke="#39994b" stroke-width="1" fill="none"></path></g></g><mask></mask><g stroke-linecap="round"><g transform="translate(10.800048828125 417.20001220703125) rotate(0 330.3999938964844 0)"><path d="M0 0 C110.13 0, 550.67 0, 660.8 0 M0 0 C110.13 0, 550.67 0, 660.8 0" stroke="#39994b" stroke-width="1" fill="none"></path></g><g transform="translate(10.800048828125 417.20001220703125) rotate(0 330.3999938964844 0)"><path d="M637.31 8.55 C644.05 6.1, 650.8 3.64, 660.8 0 M637.31 8.55 C644.75 5.84, 652.2 3.13, 660.8 0" stroke="#39994b" stroke-width="1" fill="none"></path></g><g transform="translate(10.800048828125 417.20001220703125) rotate(0 330.3999938964844 0)"><path d="M637.31 -8.55 C644.05 -6.1, 650.8 -3.64, 660.8 0 M637.31 -8.55 C644.75 -5.84, 652.2 -3.13, 660.8 0" stroke="#39994b" stroke-width="1" fill="none"></path></g></g><mask></mask></svg>