<?xml version="1.0" standalone="no"?>
<!DOCTYPE svg PUBLIC "-//W3C//DTD SVG 1.1//EN" "http://www.w3.org/Graphics/SVG/1.1/DTD/svg11.dtd">
<svg version="1.1" xmlns="http://www.w3.org/2000/svg" viewBox="0 0 681.6000366210938 427.20001220703125" width="681.6000366210938" height="427.20001220703125"><!-- svg-source:excalidraw --><metadata></metadata><defs><style class="style-fonts">
      </style></defs><g stroke-linecap="round"><g transform="translate(10 416.4000244140625) rotate(0 252.79998779296875 -185.6000213623047)"><path d="M0 0 C28 -38.13, 83.73 -166.93, 168 -228.8 C252.27 -290.67, 449.33 -347.47, 505.6 -371.2 M0 0 C28 -38.13, 83.73 -166.93, 168 -228.8 C252.27 -290.67, 449.33 -347.47, 505.6 -371.2" stroke="#56a2e8" stroke-width="2" fill="none"></path></g></g><mask></mask><g stroke-linecap="round"><g transform="translate(11.60009765625 417.20001220703125) rotate(0 0 -203.60000610351562)"><path d="M0 0 C0 -67.87, 0 -339.33, 0 -407.2 M0 0 C0 -67.87, 0 -339.33, 0 -407.2" stroke="#39994b" stroke-width="1" fill="none"></path></g><g transform="translate(11.60009765625 417.20001220703125) rotate(0 0 -203.60000610351562)"><path d="M8.55 -383.71 C5.67 -391.63, 2.79 -399.55, 0 -407.2 M8.55 -383.71 C5.48 -392.14, 2.41 -400.56, 0 -407.2" stroke="#39994b" stroke-width="1" fill="none"></path></g><g transform="translate(11.60009765625 417.20001220703125) rotate(0 0 -203.60000610351562)"><path d="M-8.55 -383.71 C-5.67 -391.63, -2.79 -399.55, 0 -407.2 M-8.55 -383.71 C-5.48 -392.14, -2.41 -400.56, 0 -407.2" stroke="#39994b" stroke-width="1" fill="none"></path></g></g><mask></mask><g stroke-linecap="round"><g transform="translate(10.800048828125 417.20001220703125) rotate(0 330.3999938964844 0)"><path d="M0 0 C110.13 0, 550.67 0, 660.8 0 M0 0 C110.13 0, 550.67 0, 660.8 0" stroke="#39994b" stroke-width="1" fill="none"></path></g><g transform="translate(10.800048828125 417.20001220703125) rotate(0 330.3999938964844 0)"><path d="M637.31 8.55 C644.05 6.1, 650.8 3.64, 660.8 0 M637.31 8.55 C644.75 5.84, 652.2 3.13, 660.8 0" stroke="#39994b" stroke-width="1" fill="none"></path></g><g transform="translate(10.800048828125 417.20001220703125) rotate(0 330.3999938964844 0)"><path d="M637.31 -8.55 C644.05 -6.1, 650.8 -3.64, 660.8 0 M637.31 -8.55 C644.75 -5.84, 652.2 -3.13, 660.8 0" stroke="#39994b" stroke-width="1" fill="none"></path></g></g><mask></mask><g stroke-linecap="round" transform="translate(13.887233989038236 356.449514493176) rotate(0 28.800018310546875 29.600006103515625)"><path d="M0 0 C0 0, 0 0, 0 0 M0 0 C0 0, 0 0, 0 0 M-0.26 6.4 C0.82 5.16, 1.89 3.92, 4.99 0.36 M-0.26 6.4 C0.94 5.01, 2.15 3.63, 4.99 0.36 M0.13 12.04 C4.03 7.55, 7.93 3.07, 10.63 -0.03 M0.13 12.04 C4.12 7.46, 8.1 2.88, 10.63 -0.03 M-0.13 18.44 C5.58 11.88, 11.28 5.31, 15.62 0.33 M-0.13 18.44 C6.15 11.22, 12.43 4, 15.62 0.33 M0.27 24.08 C6.29 17.15, 12.32 10.22, 21.26 -0.07 M0.27 24.08 C6.96 16.39, 13.64 8.69, 21.26 -0.07 M0 30.48 C6.15 23.41, 12.29 16.35, 26.25 0.29 M0 30.48 C8.11 21.15, 16.22 11.82, 26.25 0.29 M-0.26 36.88 C11.33 23.55, 22.92 10.21, 31.89 -0.1 M-0.26 36.88 C10.6 24.39, 21.46 11.9, 31.89 -0.1 M0.14 42.52 C10.56 30.53, 20.99 18.54, 36.88 0.26 M0.14 42.52 C12.26 28.58, 24.38 14.64, 36.88 0.26 M-0.12 48.92 C15.72 30.7, 31.55 12.48, 42.52 -0.14 M-0.12 48.92 C9.57 37.77, 19.26 26.63, 42.52 -0.14 M0.27 54.56 C15.97 36.5, 31.67 18.44, 47.51 0.22 M0.27 54.56 C16.69 35.67, 33.11 16.78, 47.51 0.22 M1.32 59.45 C17.25 41.13, 33.17 22.81, 53.15 -0.17 M1.32 59.45 C13.99 44.88, 26.66 30.3, 53.15 -0.17 M6.96 59.05 C20.21 43.81, 33.46 28.57, 58.14 0.19 M6.96 59.05 C20.57 43.41, 34.17 27.76, 58.14 0.19 M11.95 59.42 C24.04 45.51, 36.13 31.6, 57.88 6.59 M11.95 59.42 C21.79 48.1, 31.62 36.79, 57.88 6.59 M17.59 59.02 C29.79 44.99, 41.99 30.96, 58.27 12.23 M17.59 59.02 C30.01 44.74, 42.43 30.45, 58.27 12.23 M22.58 59.38 C34.72 45.42, 46.85 31.47, 58.01 18.63 M22.58 59.38 C30.67 50.08, 38.75 40.78, 58.01 18.63 M28.23 58.99 C38.55 47.11, 48.88 35.23, 57.75 25.02 M28.23 58.99 C37.2 48.66, 46.17 38.34, 57.75 25.02 M33.21 59.35 C42.08 49.14, 50.95 38.94, 58.14 30.67 M33.21 59.35 C41.83 49.44, 50.44 39.52, 58.14 30.67 M38.86 58.95 C43.82 53.24, 48.78 47.53, 57.88 37.06 M38.86 58.95 C42.98 54.2, 47.11 49.45, 57.88 37.06 M43.84 59.31 C48.49 53.97, 53.13 48.62, 58.28 42.71 M43.84 59.31 C48.07 54.45, 52.29 49.59, 58.28 42.71 M48.83 59.67 C51.98 56.05, 55.13 52.42, 58.01 49.11 M48.83 59.67 C50.82 57.38, 52.81 55.09, 58.01 49.11 M54.47 59.28 C55.68 57.89, 56.88 56.51, 57.75 55.5 M54.47 59.28 C55.66 57.91, 56.85 56.54, 57.75 55.5" stroke="#fa6969" stroke-width="0.5" fill="none"></path><path d="M0 0 C22.65 0, 45.3 0, 57.6 0 M0 0 C14.2 0, 28.4 0, 57.6 0 M57.6 0 C57.6 22.01, 57.6 44.02, 57.6 59.2 M57.6 0 C57.6 13.28, 57.6 26.56, 57.6 59.2 M57.6 59.2 C38.32 59.2, 19.04 59.2, 0 59.2 M57.6 59.2 C39.42 59.2, 21.23 59.2, 0 59.2 M0 59.2 C0 38.03, 0 16.85, 0 0 M0 59.2 C0 44.42, 0 29.63, 0 0" stroke="#ff8383" stroke-width="1" fill="none"></path></g><g stroke-linecap="round" transform="translate(73.7744069890382 265.2495328037229) rotate(0 28.800018310546875 75.19999694824219)"><path d="M0 0 C0 0, 0 0, 0 0 M0 0 C0 0, 0 0, 0 0 M-0.26 6.4 C0.89 5.08, 2.04 3.75, 4.99 0.36 M-0.26 6.4 C1.83 4, 3.91 1.59, 4.99 0.36 M0.13 12.04 C2.31 9.54, 4.48 7.04, 10.63 -0.03 M0.13 12.04 C2.35 9.49, 4.57 6.93, 10.63 -0.03 M-0.13 18.44 C3.71 14.03, 7.54 9.62, 15.62 0.33 M-0.13 18.44 C3.69 14.05, 7.51 9.65, 15.62 0.33 M0.27 24.08 C5.9 17.61, 11.53 11.13, 21.26 -0.07 M0.27 24.08 C6.13 17.33, 12 10.59, 21.26 -0.07 M0 30.48 C10.27 18.68, 20.53 6.87, 26.25 0.29 M0 30.48 C6.54 22.97, 13.07 15.45, 26.25 0.29 M-0.26 36.88 C11.03 23.89, 22.32 10.91, 31.89 -0.1 M-0.26 36.88 C6.38 29.25, 13.01 21.62, 31.89 -0.1 M0.14 42.52 C10.28 30.85, 20.42 19.18, 36.88 0.26 M0.14 42.52 C8.45 32.96, 16.76 23.4, 36.88 0.26 M-0.12 48.92 C14.44 32.16, 29.01 15.41, 42.52 -0.14 M-0.12 48.92 C16.64 29.64, 33.4 10.35, 42.52 -0.14 M0.27 54.56 C15.88 36.6, 31.49 18.65, 47.51 0.22 M0.27 54.56 C14.05 38.71, 27.83 22.86, 47.51 0.22 M0.01 60.96 C15.55 43.09, 31.08 25.21, 53.15 -0.17 M0.01 60.96 C21.17 36.62, 42.32 12.28, 53.15 -0.17 M-0.25 67.36 C17.44 47.01, 35.13 26.65, 58.14 0.19 M-0.25 67.36 C21.36 42.5, 42.97 17.63, 58.14 0.19 M0.14 73 C18.82 51.52, 37.49 30.03, 57.88 6.59 M0.14 73 C13.87 57.2, 27.6 41.41, 57.88 6.59 M-0.12 79.4 C20.89 55.23, 41.9 31.07, 58.27 12.23 M-0.12 79.4 C17.07 59.63, 34.25 39.86, 58.27 12.23 M0.28 85.04 C18.87 63.65, 37.47 42.26, 58.01 18.63 M0.28 85.04 C16.81 66.02, 33.34 47.01, 58.01 18.63 M0.01 91.44 C22.19 65.93, 44.37 40.42, 57.75 25.02 M0.01 91.44 C17.61 71.19, 35.21 50.95, 57.75 25.02 M-0.25 97.84 C13.92 81.54, 28.08 65.25, 58.14 30.67 M-0.25 97.84 C21.68 72.61, 43.62 47.38, 58.14 30.67 M0.15 103.48 C16.11 85.12, 32.07 66.76, 57.88 37.06 M0.15 103.48 C20.35 80.23, 40.56 56.99, 57.88 37.06 M-0.11 109.88 C11.94 96.01, 24 82.14, 58.28 42.71 M-0.11 109.88 C17.13 90.03, 34.38 70.19, 58.28 42.71 M0.28 115.52 C14.97 98.62, 29.66 81.72, 58.01 49.11 M0.28 115.52 C22.57 89.88, 44.85 64.25, 58.01 49.11 M0.02 121.92 C11.71 108.46, 23.41 95.01, 57.75 55.5 M0.02 121.92 C16.95 102.44, 33.89 82.96, 57.75 55.5 M-0.24 128.32 C20.37 104.61, 40.97 80.9, 58.15 61.15 M-0.24 128.32 C15.92 109.72, 32.09 91.13, 58.15 61.15 M0.15 133.96 C22.48 108.27, 44.81 82.58, 57.89 67.54 M0.15 133.96 C21.79 109.07, 43.42 84.19, 57.89 67.54 M-0.11 140.36 C18.81 118.6, 37.72 96.84, 58.28 73.19 M-0.11 140.36 C17.08 120.59, 34.26 100.82, 58.28 73.19 M0.29 146 C22.35 120.62, 44.42 95.23, 58.02 79.59 M0.29 146 C12 132.53, 23.71 119.06, 58.02 79.59 M1.34 150.89 C20.33 129.04, 39.33 107.18, 57.76 85.98 M1.34 150.89 C13.64 136.74, 25.94 122.59, 57.76 85.98 M6.98 150.49 C26.38 128.17, 45.79 105.85, 58.15 91.63 M6.98 150.49 C27.38 127.02, 47.78 103.55, 58.15 91.63 M11.97 150.85 C24.71 136.19, 37.46 121.53, 57.89 98.02 M11.97 150.85 C22.78 138.42, 33.59 125.98, 57.89 98.02 M17.61 150.46 C27.18 139.45, 36.74 128.45, 58.29 103.67 M17.61 150.46 C27.42 139.18, 37.22 127.9, 58.29 103.67 M22.6 150.82 C31.46 140.62, 40.32 130.43, 58.02 110.06 M22.6 150.82 C31.16 140.97, 39.72 131.12, 58.02 110.06 M28.24 150.42 C39.31 137.69, 50.37 124.96, 57.76 116.46 M28.24 150.42 C39.07 137.97, 49.89 125.51, 57.76 116.46 M33.23 150.78 C40.09 142.89, 46.95 135, 58.16 122.11 M33.23 150.78 C41.7 141.03, 50.18 131.29, 58.16 122.11 M38.87 150.39 C44.39 144.04, 49.91 137.69, 57.9 128.5 M38.87 150.39 C44.01 144.48, 49.14 138.57, 57.9 128.5 M43.86 150.75 C49.5 144.26, 55.14 137.77, 58.29 134.15 M43.86 150.75 C48.78 145.09, 53.7 139.42, 58.29 134.15 M49.5 150.36 C51.55 148, 53.6 145.64, 58.03 140.54 M49.5 150.36 C51.23 148.36, 52.97 146.37, 58.03 140.54 M54.49 150.72 C55.64 149.39, 56.8 148.06, 57.77 146.94 M54.49 150.72 C55.35 149.72, 56.22 148.73, 57.77 146.94" stroke="#fa6969" stroke-width="0.5" fill="none"></path><path d="M0 0 C17.68 0, 35.36 0, 57.6 0 M0 0 C12.82 0, 25.64 0, 57.6 0 M57.6 0 C57.6 55.19, 57.6 110.37, 57.6 150.4 M57.6 0 C57.6 44.39, 57.6 88.78, 57.6 150.4 M57.6 150.4 C43.54 150.4, 29.47 150.4, 0 150.4 M57.6 150.4 C43.82 150.4, 30.03 150.4, 0 150.4 M0 150.4 C0 117.28, 0 84.17, 0 0 M0 150.4 C0 103.3, 0 56.19, 0 0" stroke="#ff8383" stroke-width="1" fill="none"></path></g><g stroke-linecap="round" transform="translate(133.66157998903816 201.2495328037229) rotate(0 28.800018310546875 107.19999694824219)"><path d="M0 0 C0 0, 0 0, 0 0 M0 0 C0 0, 0 0, 0 0 M-0.26 6.4 C1.22 4.69, 2.71 2.98, 4.99 0.36 M-0.26 6.4 C1.29 4.62, 2.83 2.84, 4.99 0.36 M0.13 12.04 C2.9 8.86, 5.66 5.68, 10.63 -0.03 M0.13 12.04 C3.63 8.02, 7.12 4, 10.63 -0.03 M-0.13 18.44 C3.52 14.24, 7.17 10.04, 15.62 0.33 M-0.13 18.44 C4.13 13.55, 8.38 8.65, 15.62 0.33 M0.27 24.08 C5.75 17.77, 11.24 11.46, 21.26 -0.07 M0.27 24.08 C8.34 14.8, 16.41 5.51, 21.26 -0.07 M0 30.48 C5.27 24.42, 10.54 18.37, 26.25 0.29 M0 30.48 C10.11 18.85, 20.22 7.22, 26.25 0.29 M-0.26 36.88 C10.5 24.5, 21.26 12.13, 31.89 -0.1 M-0.26 36.88 C6.3 29.34, 12.85 21.8, 31.89 -0.1 M0.14 42.52 C12.72 28.04, 25.31 13.57, 36.88 0.26 M0.14 42.52 C10.62 30.46, 21.1 18.41, 36.88 0.26 M-0.12 48.92 C15.15 31.35, 30.41 13.79, 42.52 -0.14 M-0.12 48.92 C15.98 30.39, 32.08 11.87, 42.52 -0.14 M0.27 54.56 C15.78 36.72, 31.29 18.88, 47.51 0.22 M0.27 54.56 C10.83 42.42, 21.38 30.28, 47.51 0.22 M0.01 60.96 C14.54 44.24, 29.08 27.52, 53.15 -0.17 M0.01 60.96 C18.61 39.56, 37.22 18.15, 53.15 -0.17 M-0.25 67.36 C14.11 50.83, 28.48 34.31, 58.14 0.19 M-0.25 67.36 C20.8 43.14, 41.85 18.93, 58.14 0.19 M0.14 73 C22.66 47.1, 45.18 21.19, 57.88 6.59 M0.14 73 C18.83 51.51, 37.51 30.01, 57.88 6.59 M-0.12 79.4 C17.44 59.2, 35 39, 58.27 12.23 M-0.12 79.4 C15.36 61.59, 30.85 43.78, 58.27 12.23 M0.28 85.04 C16.66 66.19, 33.05 47.34, 58.01 18.63 M0.28 85.04 C20.96 61.25, 41.64 37.46, 58.01 18.63 M0.01 91.44 C18.19 70.53, 36.36 49.63, 57.75 25.02 M0.01 91.44 C12.36 77.23, 24.71 63.03, 57.75 25.02 M-0.25 97.84 C17.17 77.8, 34.59 57.76, 58.14 30.67 M-0.25 97.84 C15.63 79.57, 31.5 61.31, 58.14 30.67 M0.15 103.48 C13.3 88.35, 26.44 73.23, 57.88 37.06 M0.15 103.48 C16.95 84.15, 33.75 64.82, 57.88 37.06 M-0.11 109.88 C14.14 93.47, 28.4 77.07, 58.28 42.71 M-0.11 109.88 C19.75 87.02, 39.62 64.17, 58.28 42.71 M0.28 115.52 C23.16 89.2, 46.04 62.88, 58.01 49.11 M0.28 115.52 C16.95 96.35, 33.61 77.17, 58.01 49.11 M0.02 121.92 C17.29 102.05, 34.57 82.17, 57.75 55.5 M0.02 121.92 C22.93 95.56, 45.84 69.21, 57.75 55.5 M-0.24 128.32 C16.94 108.55, 34.13 88.78, 58.15 61.15 M-0.24 128.32 C11.83 114.43, 23.9 100.54, 58.15 61.15 M0.15 133.96 C17.96 113.48, 35.76 93, 57.89 67.54 M0.15 133.96 C19.38 111.84, 38.6 89.73, 57.89 67.54 M-0.11 140.36 C12.33 126.05, 24.76 111.75, 58.28 73.19 M-0.11 140.36 C20.5 116.65, 41.11 92.93, 58.28 73.19 M0.29 146 C16.68 127.15, 33.07 108.29, 58.02 79.59 M0.29 146 C23.26 119.57, 46.23 93.15, 58.02 79.59 M0.02 152.4 C20.84 128.46, 41.65 104.51, 57.76 85.98 M0.02 152.4 C14.05 136.26, 28.08 120.12, 57.76 85.98 M-0.24 158.8 C17.58 138.3, 35.39 117.81, 58.15 91.63 M-0.24 158.8 C17.19 138.75, 34.62 118.7, 58.15 91.63 M0.16 164.44 C21.08 140.37, 41.99 116.31, 57.89 98.02 M0.16 164.44 C17.48 144.51, 34.8 124.59, 57.89 98.02 M-0.1 170.84 C12.66 156.16, 25.42 141.48, 58.29 103.67 M-0.1 170.84 C17.38 150.72, 34.87 130.61, 58.29 103.67 M0.29 176.48 C21.14 152.49, 41.99 128.51, 58.02 110.06 M0.29 176.48 C20.8 152.88, 41.32 129.28, 58.02 110.06 M0.03 182.88 C19.54 160.43, 39.06 137.98, 57.76 116.46 M0.03 182.88 C18.71 161.39, 37.38 139.91, 57.76 116.46 M-0.23 189.27 C18.27 168, 36.76 146.72, 58.16 122.11 M-0.23 189.27 C20.08 165.91, 40.39 142.54, 58.16 122.11 M0.16 194.92 C20.05 172.04, 39.93 149.17, 57.9 128.5 M0.16 194.92 C14.65 178.25, 29.14 161.58, 57.9 128.5 M-0.1 201.32 C17.79 180.74, 35.67 160.17, 58.29 134.15 M-0.1 201.32 C13.01 186.24, 26.12 171.16, 58.29 134.15 M0.3 206.96 C22.57 181.33, 44.85 155.7, 58.03 140.54 M0.3 206.96 C13 192.34, 25.71 177.73, 58.03 140.54 M0.03 213.36 C12.96 198.49, 25.88 183.62, 57.77 146.94 M0.03 213.36 C13.88 197.43, 27.72 181.51, 57.77 146.94 M4.36 214.47 C24.68 191.1, 45 167.72, 58.16 152.59 M4.36 214.47 C21.95 194.24, 39.53 174.02, 58.16 152.59 M9.35 214.83 C22.99 199.14, 36.62 183.46, 57.9 158.98 M9.35 214.83 C21.79 200.52, 34.22 186.22, 57.9 158.98 M14.99 214.44 C28.09 199.38, 41.18 184.31, 58.29 164.63 M14.99 214.44 C29.07 198.24, 43.15 182.05, 58.29 164.63 M19.98 214.8 C31.62 201.4, 43.27 188.01, 58.03 171.02 M19.98 214.8 C29.26 204.12, 38.54 193.45, 58.03 171.02 M25.62 214.4 C35.58 202.95, 45.53 191.5, 57.77 177.42 M25.62 214.4 C36.12 202.33, 46.61 190.26, 57.77 177.42 M30.61 214.76 C37.36 207, 44.11 199.24, 58.17 183.06 M30.61 214.76 C41.11 202.69, 51.61 190.61, 58.17 183.06 M36.26 214.37 C40.94 208.98, 45.62 203.6, 57.91 189.46 M36.26 214.37 C42.76 206.89, 49.26 199.4, 57.91 189.46 M41.24 214.73 C45.69 209.62, 50.13 204.5, 58.3 195.11 M41.24 214.73 C47.27 207.79, 53.3 200.86, 58.3 195.11 M46.89 214.33 C49.19 211.69, 51.49 209.04, 58.04 201.5 M46.89 214.33 C51.06 209.53, 55.23 204.73, 58.04 201.5 M51.87 214.69 C53.25 213.11, 54.63 211.53, 57.78 207.9 M51.87 214.69 C53.38 212.96, 54.88 211.23, 57.78 207.9 M57.52 214.3 C57.73 214.05, 57.95 213.8, 58.17 213.54 M57.52 214.3 C57.73 214.05, 57.95 213.8, 58.17 213.54" stroke="#fa6969" stroke-width="0.5" fill="none"></path><path d="M0 0 C16.31 0, 32.63 0, 57.6 0 M0 0 C16.37 0, 32.74 0, 57.6 0 M57.6 0 C57.6 45.97, 57.6 91.93, 57.6 214.4 M57.6 0 C57.6 47.51, 57.6 95.02, 57.6 214.4 M57.6 214.4 C38.53 214.4, 19.46 214.4, 0 214.4 M57.6 214.4 C41.78 214.4, 25.95 214.4, 0 214.4 M0 214.4 C0 167.97, 0 121.54, 0 0 M0 214.4 C0 145.4, 0 76.39, 0 0" stroke="#ff8383" stroke-width="1" fill="none"></path></g><g stroke-linecap="round" transform="translate(193.54875298903823 158.84953890723853) rotate(0 28.800018310546875 128.39999389648438)"><path d="M0 0 C0 0, 0 0, 0 0 M0 0 C0 0, 0 0, 0 0 M-0.26 6.4 C0.79 5.18, 1.85 3.97, 4.99 0.36 M-0.26 6.4 C1.02 4.93, 2.29 3.46, 4.99 0.36 M0.13 12.04 C3.67 7.97, 7.21 3.9, 10.63 -0.03 M0.13 12.04 C2.4 9.44, 4.66 6.83, 10.63 -0.03 M-0.13 18.44 C3.44 14.33, 7.01 10.23, 15.62 0.33 M-0.13 18.44 C5.71 11.72, 11.56 5, 15.62 0.33 M0.27 24.08 C7.6 15.65, 14.93 7.21, 21.26 -0.07 M0.27 24.08 C8.08 15.09, 15.9 6.1, 21.26 -0.07 M0 30.48 C8.8 20.37, 17.59 10.25, 26.25 0.29 M0 30.48 C7.84 21.46, 15.68 12.45, 26.25 0.29 M-0.26 36.88 C11.17 23.73, 22.6 10.59, 31.89 -0.1 M-0.26 36.88 C6.35 29.28, 12.95 21.68, 31.89 -0.1 M0.14 42.52 C7.98 33.5, 15.83 24.47, 36.88 0.26 M0.14 42.52 C14.23 26.3, 28.33 10.09, 36.88 0.26 M-0.12 48.92 C14.15 32.5, 28.43 16.07, 42.52 -0.14 M-0.12 48.92 C13.47 33.28, 27.07 17.63, 42.52 -0.14 M0.27 54.56 C12.44 40.57, 24.6 26.57, 47.51 0.22 M0.27 54.56 C16.85 35.49, 33.42 16.42, 47.51 0.22 M0.01 60.96 C11.91 47.27, 23.81 33.58, 53.15 -0.17 M0.01 60.96 C12.4 46.7, 24.8 32.45, 53.15 -0.17 M-0.25 67.36 C15.52 49.21, 31.29 31.07, 58.14 0.19 M-0.25 67.36 C22.65 41.02, 45.54 14.67, 58.14 0.19 M0.14 73 C12.69 58.57, 25.23 44.14, 57.88 6.59 M0.14 73 C16.68 53.98, 33.22 34.95, 57.88 6.59 M-0.12 79.4 C21.02 55.08, 42.16 30.76, 58.27 12.23 M-0.12 79.4 C15.44 61.5, 31 43.6, 58.27 12.23 M0.28 85.04 C15.7 67.3, 31.12 49.56, 58.01 18.63 M0.28 85.04 C19.54 62.88, 38.81 40.71, 58.01 18.63 M0.01 91.44 C14.57 74.7, 29.12 57.96, 57.75 25.02 M0.01 91.44 C11.57 78.15, 23.12 64.85, 57.75 25.02 M-0.25 97.84 C22.15 72.07, 44.55 46.31, 58.14 30.67 M-0.25 97.84 C14.2 81.22, 28.65 64.6, 58.14 30.67 M0.15 103.48 C21.31 79.13, 42.48 54.79, 57.88 37.06 M0.15 103.48 C22.46 77.81, 44.78 52.13, 57.88 37.06 M-0.11 109.88 C19.42 87.41, 38.95 64.94, 58.28 42.71 M-0.11 109.88 C12.56 95.3, 25.23 80.72, 58.28 42.71 M0.28 115.52 C19.91 92.94, 39.54 70.36, 58.01 49.11 M0.28 115.52 C16.81 96.5, 33.34 77.49, 58.01 49.11 M0.02 121.92 C19.97 98.96, 39.93 76.01, 57.75 55.5 M0.02 121.92 C14.41 105.36, 28.8 88.81, 57.75 55.5 M-0.24 128.32 C18.12 107.2, 36.47 86.08, 58.15 61.15 M-0.24 128.32 C18.87 106.33, 37.98 84.35, 58.15 61.15 M0.15 133.96 C11.73 120.65, 23.3 107.33, 57.89 67.54 M0.15 133.96 C15.63 116.16, 31.1 98.36, 57.89 67.54 M-0.11 140.36 C13.89 124.26, 27.88 108.16, 58.28 73.19 M-0.11 140.36 C11.83 126.62, 23.77 112.89, 58.28 73.19 M0.29 146 C19.93 123.4, 39.58 100.8, 58.02 79.59 M0.29 146 C12.66 131.76, 25.04 117.52, 58.02 79.59 M0.02 152.4 C21.59 127.58, 43.16 102.77, 57.76 85.98 M0.02 152.4 C21.96 127.16, 43.9 101.93, 57.76 85.98 M-0.24 158.8 C21.04 134.32, 42.31 109.85, 58.15 91.63 M-0.24 158.8 C20.01 135.51, 40.25 112.22, 58.15 91.63 M0.16 164.44 C22.2 139.09, 44.23 113.73, 57.89 98.02 M0.16 164.44 C22.28 138.99, 44.4 113.54, 57.89 98.02 M-0.1 170.84 C19.14 148.7, 38.38 126.56, 58.29 103.67 M-0.1 170.84 C19.77 147.97, 39.64 125.11, 58.29 103.67 M0.29 176.48 C14 160.71, 27.7 144.95, 58.02 110.06 M0.29 176.48 C18.23 155.84, 36.17 135.2, 58.02 110.06 M0.03 182.88 C14.5 166.23, 28.98 149.58, 57.76 116.46 M0.03 182.88 C22.43 157.11, 44.83 131.34, 57.76 116.46 M-0.23 189.27 C18.56 167.66, 37.35 146.05, 58.16 122.11 M-0.23 189.27 C18.82 167.36, 37.87 145.44, 58.16 122.11 M0.16 194.92 C11.73 181.61, 23.29 168.31, 57.9 128.5 M0.16 194.92 C17.46 175.02, 34.75 155.13, 57.9 128.5 M-0.1 201.32 C18.81 179.56, 37.73 157.8, 58.29 134.15 M-0.1 201.32 C20.97 177.08, 42.04 152.84, 58.29 134.15 M0.3 206.96 C12.35 193.09, 24.41 179.22, 58.03 140.54 M0.3 206.96 C11.95 193.55, 23.61 180.14, 58.03 140.54 M0.03 213.36 C19.7 190.74, 39.36 168.12, 57.77 146.94 M0.03 213.36 C12.3 199.25, 24.57 185.13, 57.77 146.94 M-0.23 219.75 C21.05 195.27, 42.33 170.8, 58.16 152.59 M-0.23 219.75 C13.75 203.67, 27.73 187.59, 58.16 152.59 M0.17 225.4 C21.89 200.4, 43.62 175.41, 57.9 158.98 M0.17 225.4 C14.4 209.03, 28.63 192.66, 57.9 158.98 M-0.09 231.8 C18.19 210.76, 36.48 189.72, 58.29 164.63 M-0.09 231.8 C15.87 213.43, 31.83 195.06, 58.29 164.63 M0.3 237.44 C14.37 221.25, 28.44 205.07, 58.03 171.02 M0.3 237.44 C17.35 217.82, 34.41 198.2, 58.03 171.02 M0.04 243.84 C20.76 220, 41.48 196.17, 57.77 177.42 M0.04 243.84 C22.12 218.43, 44.2 193.03, 57.77 177.42 M-0.22 250.23 C15.12 232.58, 30.47 214.93, 58.17 183.06 M-0.22 250.23 C20.73 226.13, 41.69 202.02, 58.17 183.06 M0.17 255.88 C21.14 231.76, 42.11 207.64, 57.91 189.46 M0.17 255.88 C21.1 231.81, 42.02 207.74, 57.91 189.46 M4.5 256.99 C23.97 234.6, 43.43 212.21, 58.3 195.11 M4.5 256.99 C20.85 238.19, 37.19 219.39, 58.3 195.11 M9.49 257.35 C21.41 243.64, 33.33 229.93, 58.04 201.5 M9.49 257.35 C20.47 244.72, 31.45 232.09, 58.04 201.5 M15.13 256.96 C31.19 238.49, 47.25 220.01, 57.78 207.9 M15.13 256.96 C30.67 239.09, 46.2 221.22, 57.78 207.9 M20.12 257.32 C30.9 244.92, 41.67 232.52, 58.17 213.54 M20.12 257.32 C31.68 244.01, 43.25 230.71, 58.17 213.54 M25.76 256.92 C37.04 243.96, 48.31 230.99, 57.91 219.94 M25.76 256.92 C33.52 247.99, 41.28 239.07, 57.91 219.94 M30.75 257.28 C36.57 250.58, 42.4 243.89, 58.3 225.58 M30.75 257.28 C40.2 246.41, 49.65 235.54, 58.3 225.58 M36.39 256.89 C41.49 251.02, 46.6 245.15, 58.04 231.98 M36.39 256.89 C40.8 251.81, 45.22 246.74, 58.04 231.98 M41.38 257.25 C46.67 251.16, 51.97 245.07, 57.78 238.38 M41.38 257.25 C44.79 253.33, 48.2 249.41, 57.78 238.38 M47.02 256.85 C51.38 251.84, 55.74 246.82, 58.18 244.02 M47.02 256.85 C51.34 251.89, 55.65 246.93, 58.18 244.02 M52.01 257.21 C54.18 254.71, 56.36 252.21, 57.91 250.42 M52.01 257.21 C54.26 254.63, 56.5 252.05, 57.91 250.42" stroke="#fa6969" stroke-width="0.5" fill="none"></path><path d="M0 0 C19.94 0, 39.87 0, 57.6 0 M0 0 C13.07 0, 26.15 0, 57.6 0 M57.6 0 C57.6 99.63, 57.6 199.26, 57.6 256.8 M57.6 0 C57.6 101.18, 57.6 202.35, 57.6 256.8 M57.6 256.8 C36.29 256.8, 14.97 256.8, 0 256.8 M57.6 256.8 C40.11 256.8, 22.63 256.8, 0 256.8 M0 256.8 C0 159.5, 0 62.2, 0 0 M0 256.8 C0 198.91, 0 141.03, 0 0" stroke="#ff8383" stroke-width="1" fill="none"></path></g><g stroke-linecap="round" transform="translate(253.4359259890382 130.04952059669165) rotate(0 28.800018310546875 142.8000030517578)"><path d="M0 0 C0 0, 0 0, 0 0 M0 0 C0 0, 0 0, 0 0 M-0.26 6.4 C1.79 4.04, 3.84 1.68, 4.99 0.36 M-0.26 6.4 C1.37 4.52, 3 2.65, 4.99 0.36 M0.13 12.04 C3.85 7.76, 7.57 3.48, 10.63 -0.03 M0.13 12.04 C3.55 8.11, 6.97 4.18, 10.63 -0.03 M-0.13 18.44 C4.61 12.99, 9.34 7.54, 15.62 0.33 M-0.13 18.44 C5.37 12.11, 10.87 5.78, 15.62 0.33 M0.27 24.08 C8.29 14.85, 16.31 5.62, 21.26 -0.07 M0.27 24.08 C8.49 14.62, 16.71 5.17, 21.26 -0.07 M0 30.48 C8.66 20.52, 17.32 10.56, 26.25 0.29 M0 30.48 C6.31 23.22, 12.62 15.96, 26.25 0.29 M-0.26 36.88 C6.62 28.97, 13.49 21.06, 31.89 -0.1 M-0.26 36.88 C11.09 23.82, 22.45 10.76, 31.89 -0.1 M0.14 42.52 C11.22 29.77, 22.3 17.02, 36.88 0.26 M0.14 42.52 C9.21 32.08, 18.28 21.65, 36.88 0.26 M-0.12 48.92 C9.19 38.2, 18.51 27.48, 42.52 -0.14 M-0.12 48.92 C16.49 29.8, 33.11 10.69, 42.52 -0.14 M0.27 54.56 C10.01 43.36, 19.75 32.16, 47.51 0.22 M0.27 54.56 C18.69 33.37, 37.11 12.18, 47.51 0.22 M0.01 60.96 C15.02 43.69, 30.03 26.42, 53.15 -0.17 M0.01 60.96 C15.34 43.32, 30.68 25.68, 53.15 -0.17 M-0.25 67.36 C17.32 47.15, 34.89 26.93, 58.14 0.19 M-0.25 67.36 C20.09 43.96, 40.42 20.57, 58.14 0.19 M0.14 73 C18.01 52.44, 35.88 31.89, 57.88 6.59 M0.14 73 C20.07 50.08, 39.99 27.16, 57.88 6.59 M-0.12 79.4 C12.18 65.25, 24.48 51.1, 58.27 12.23 M-0.12 79.4 C20.82 55.31, 41.76 31.22, 58.27 12.23 M0.28 85.04 C18.76 63.77, 37.25 42.5, 58.01 18.63 M0.28 85.04 C15.43 67.61, 30.58 50.18, 58.01 18.63 M0.01 91.44 C13.13 76.35, 26.25 61.26, 57.75 25.02 M0.01 91.44 C18.22 70.5, 36.42 49.56, 57.75 25.02 M-0.25 97.84 C20.35 74.15, 40.94 50.45, 58.14 30.67 M-0.25 97.84 C14.43 80.96, 29.1 64.07, 58.14 30.67 M0.15 103.48 C12.25 89.56, 24.36 75.63, 57.88 37.06 M0.15 103.48 C15.78 85.5, 31.41 67.52, 57.88 37.06 M-0.11 109.88 C21.02 85.56, 42.16 61.24, 58.28 42.71 M-0.11 109.88 C19.18 87.68, 38.48 65.48, 58.28 42.71 M0.28 115.52 C16.69 96.64, 33.1 77.76, 58.01 49.11 M0.28 115.52 C19.62 93.28, 38.95 71.04, 58.01 49.11 M0.02 121.92 C18.53 100.63, 37.03 79.34, 57.75 55.5 M0.02 121.92 C13.09 106.89, 26.15 91.85, 57.75 55.5 M-0.24 128.32 C19.87 105.18, 39.98 82.05, 58.15 61.15 M-0.24 128.32 C21.7 103.08, 43.64 77.84, 58.15 61.15 M0.15 133.96 C18.5 112.85, 36.85 91.74, 57.89 67.54 M0.15 133.96 C15.93 115.81, 31.71 97.66, 57.89 67.54 M-0.11 140.36 C20.37 116.8, 40.85 93.24, 58.28 73.19 M-0.11 140.36 C18.51 118.93, 37.14 97.51, 58.28 73.19 M0.29 146 C15.33 128.7, 30.37 111.39, 58.02 79.59 M0.29 146 C18.38 125.19, 36.47 104.38, 58.02 79.59 M0.02 152.4 C13.37 137.05, 26.71 121.7, 57.76 85.98 M0.02 152.4 C14.35 135.92, 28.67 119.45, 57.76 85.98 M-0.24 158.8 C21.52 133.77, 43.27 108.74, 58.15 91.63 M-0.24 158.8 C22.92 132.16, 46.07 105.53, 58.15 91.63 M0.16 164.44 C22.12 139.17, 44.09 113.9, 57.89 98.02 M0.16 164.44 C17.73 144.22, 35.31 124, 57.89 98.02 M-0.1 170.84 C17.12 151.02, 34.35 131.2, 58.29 103.67 M-0.1 170.84 C16.28 151.99, 32.65 133.15, 58.29 103.67 M0.29 176.48 C21.13 152.51, 41.97 128.53, 58.02 110.06 M0.29 176.48 C22.64 150.77, 44.99 125.05, 58.02 110.06 M0.03 182.88 C22.33 157.22, 44.63 131.57, 57.76 116.46 M0.03 182.88 C19.13 160.9, 38.24 138.92, 57.76 116.46 M-0.23 189.27 C11.56 175.7, 23.36 162.13, 58.16 122.11 M-0.23 189.27 C14.55 172.27, 29.34 155.26, 58.16 122.11 M0.16 194.92 C12.96 180.2, 25.75 165.48, 57.9 128.5 M0.16 194.92 C12.92 180.24, 25.68 165.56, 57.9 128.5 M-0.1 201.32 C17.43 181.15, 34.96 160.99, 58.29 134.15 M-0.1 201.32 C12.59 186.72, 25.28 172.12, 58.29 134.15 M0.3 206.96 C17.26 187.44, 34.22 167.93, 58.03 140.54 M0.3 206.96 C13.69 191.55, 27.09 176.14, 58.03 140.54 M0.03 213.36 C18.46 192.16, 36.89 170.96, 57.77 146.94 M0.03 213.36 C14.59 196.61, 29.16 179.86, 57.77 146.94 M-0.23 219.75 C18.03 198.75, 36.29 177.74, 58.16 152.59 M-0.23 219.75 C20.38 196.04, 40.99 172.33, 58.16 152.59 M0.17 225.4 C16.91 206.14, 33.65 186.88, 57.9 158.98 M0.17 225.4 C16.8 206.26, 33.44 187.12, 57.9 158.98 M-0.09 231.8 C17.73 211.29, 35.55 190.79, 58.29 164.63 M-0.09 231.8 C22.13 206.23, 44.36 180.66, 58.29 164.63 M0.3 237.44 C18.24 216.8, 36.17 196.17, 58.03 171.02 M0.3 237.44 C18.39 216.63, 36.48 195.81, 58.03 171.02 M0.04 243.84 C18.27 222.87, 36.5 201.9, 57.77 177.42 M0.04 243.84 C12.72 229.25, 25.4 214.66, 57.77 177.42 M-0.22 250.23 C14.18 233.67, 28.57 217.11, 58.17 183.06 M-0.22 250.23 C15.77 231.84, 31.76 213.44, 58.17 183.06 M0.17 255.88 C17.81 235.59, 35.45 215.3, 57.91 189.46 M0.17 255.88 C22.25 230.48, 44.32 205.09, 57.91 189.46 M-0.09 262.27 C13.35 246.81, 26.79 231.35, 58.3 195.11 M-0.09 262.27 C21.72 237.18, 43.53 212.09, 58.3 195.11 M0.3 267.92 C14.92 251.1, 29.54 234.29, 58.04 201.5 M0.3 267.92 C16.99 248.72, 33.68 229.52, 58.04 201.5 M0.04 274.32 C20.9 250.33, 41.75 226.34, 57.78 207.9 M0.04 274.32 C21.64 249.47, 43.23 224.63, 57.78 207.9 M-0.22 280.71 C14.64 263.62, 29.5 246.52, 58.17 213.54 M-0.22 280.71 C21.26 256.01, 42.74 231.3, 58.17 213.54 M0.18 286.36 C12.09 272.65, 24.01 258.94, 57.91 219.94 M0.18 286.36 C17.19 266.78, 34.21 247.21, 57.91 219.94 M5.82 285.96 C17.5 272.53, 29.18 259.09, 58.3 225.58 M5.82 285.96 C24.43 264.56, 43.03 243.15, 58.3 225.58 M10.81 286.32 C24.98 270.02, 39.15 253.72, 58.04 231.98 M10.81 286.32 C25.59 269.32, 40.37 252.31, 58.04 231.98 M16.45 285.93 C32.46 267.51, 48.46 249.1, 57.78 238.38 M16.45 285.93 C32.68 267.25, 48.92 248.58, 57.78 238.38 M21.44 286.29 C30.37 276.01, 39.3 265.74, 58.18 244.02 M21.44 286.29 C31.13 275.14, 40.82 263.99, 58.18 244.02 M27.08 285.89 C39.3 271.84, 51.51 257.79, 57.91 250.42 M27.08 285.89 C37.38 274.04, 47.68 262.19, 57.91 250.42 M32.07 286.25 C37.43 280.09, 42.79 273.92, 58.31 256.06 M32.07 286.25 C40.99 275.99, 49.92 265.72, 58.31 256.06 M37.71 285.86 C42.06 280.86, 46.4 275.86, 58.05 262.46 M37.71 285.86 C42.55 280.3, 47.38 274.73, 58.05 262.46 M42.7 286.22 C46 282.42, 49.3 278.62, 57.79 268.86 M42.7 286.22 C48.62 279.4, 54.55 272.59, 57.79 268.86 M48.34 285.82 C50.52 283.32, 52.7 280.81, 58.18 274.5 M48.34 285.82 C51.01 282.76, 53.67 279.69, 58.18 274.5 M53.33 286.18 C54.66 284.65, 55.99 283.12, 57.92 280.9 M53.33 286.18 C54.38 284.97, 55.44 283.75, 57.92 280.9" stroke="#fa6969" stroke-width="0.5" fill="none"></path><path d="M0 0 C14.92 0, 29.83 0, 57.6 0 M0 0 C18.46 0, 36.91 0, 57.6 0 M57.6 0 C57.6 77.88, 57.6 155.75, 57.6 285.6 M57.6 0 C57.6 93.07, 57.6 186.13, 57.6 285.6 M57.6 285.6 C44.99 285.6, 32.38 285.6, 0 285.6 M57.6 285.6 C34.56 285.6, 11.52 285.6, 0 285.6 M0 285.6 C0 215.79, 0 145.98, 0 0 M0 285.6 C0 194.62, 0 103.64, 0 0" stroke="#ff8383" stroke-width="1" fill="none"></path></g><g stroke-linecap="round" transform="translate(313.3230989890383 108.40002470020733) rotate(0 28.800018310546875 153.99999999999997)"><path d="M0 0 C0 0, 0 0, 0 0 M0 0 C0 0, 0 0, 0 0 M-0.26 6.4 C1.07 4.86, 2.41 3.33, 4.99 0.36 M-0.26 6.4 C1.04 4.91, 2.33 3.41, 4.99 0.36 M0.13 12.04 C3.35 8.34, 6.57 4.64, 10.63 -0.03 M0.13 12.04 C4.29 7.26, 8.44 2.48, 10.63 -0.03 M-0.13 18.44 C3.2 14.61, 6.52 10.79, 15.62 0.33 M-0.13 18.44 C5.19 12.32, 10.51 6.2, 15.62 0.33 M0.27 24.08 C6.91 16.44, 13.55 8.8, 21.26 -0.07 M0.27 24.08 C6.71 16.67, 13.15 9.26, 21.26 -0.07 M0 30.48 C5.69 23.94, 11.38 17.4, 26.25 0.29 M0 30.48 C8.06 21.21, 16.11 11.95, 26.25 0.29 M-0.26 36.88 C7.62 27.82, 15.5 18.75, 31.89 -0.1 M-0.26 36.88 C11.65 23.18, 23.57 9.47, 31.89 -0.1 M0.14 42.52 C9.81 31.4, 19.47 20.28, 36.88 0.26 M0.14 42.52 C11.86 29.03, 23.59 15.54, 36.88 0.26 M-0.12 48.92 C14.88 31.66, 29.87 14.41, 42.52 -0.14 M-0.12 48.92 C9.35 38.02, 18.82 27.13, 42.52 -0.14 M0.27 54.56 C9.79 43.61, 19.3 32.67, 47.51 0.22 M0.27 54.56 C17.09 35.21, 33.91 15.86, 47.51 0.22 M0.01 60.96 C10.82 48.52, 21.64 36.08, 53.15 -0.17 M0.01 60.96 C14.06 44.79, 28.12 28.62, 53.15 -0.17 M-0.25 67.36 C13.77 51.23, 27.79 35.1, 58.14 0.19 M-0.25 67.36 C18.24 46.08, 36.73 24.81, 58.14 0.19 M0.14 73 C21.81 48.07, 43.48 23.15, 57.88 6.59 M0.14 73 C21.37 48.58, 42.59 24.16, 57.88 6.59 M-0.12 79.4 C14.21 62.91, 28.55 46.42, 58.27 12.23 M-0.12 79.4 C18.39 58.1, 36.91 36.81, 58.27 12.23 M0.28 85.04 C20.48 61.8, 40.68 38.56, 58.01 18.63 M0.28 85.04 C21.57 60.55, 42.86 36.05, 58.01 18.63 M0.01 91.44 C13.97 75.39, 27.92 59.34, 57.75 25.02 M0.01 91.44 C22.55 65.51, 45.09 39.58, 57.75 25.02 M-0.25 97.84 C12.47 83.2, 25.2 68.57, 58.14 30.67 M-0.25 97.84 C21.49 72.83, 43.23 47.83, 58.14 30.67 M0.15 103.48 C18.08 82.85, 36.01 62.22, 57.88 37.06 M0.15 103.48 C22.5 77.76, 44.86 52.05, 57.88 37.06 M-0.11 109.88 C21.93 84.52, 43.97 59.16, 58.28 42.71 M-0.11 109.88 C14.46 93.11, 29.04 76.34, 58.28 42.71 M0.28 115.52 C17.15 96.12, 34.01 76.71, 58.01 49.11 M0.28 115.52 C16.17 97.25, 32.05 78.97, 58.01 49.11 M0.02 121.92 C13.59 106.31, 27.15 90.7, 57.75 55.5 M0.02 121.92 C19.63 99.36, 39.24 76.8, 57.75 55.5 M-0.24 128.32 C16.33 109.25, 32.9 90.19, 58.15 61.15 M-0.24 128.32 C13.72 112.26, 27.67 96.2, 58.15 61.15 M0.15 133.96 C17.72 113.74, 35.3 93.53, 57.89 67.54 M0.15 133.96 C20.26 110.83, 40.37 87.7, 57.89 67.54 M-0.11 140.36 C19.8 117.45, 39.71 94.54, 58.28 73.19 M-0.11 140.36 C22.13 114.77, 44.38 89.18, 58.28 73.19 M0.29 146 C18.03 125.58, 35.78 105.17, 58.02 79.59 M0.29 146 C14.64 129.49, 28.99 112.98, 58.02 79.59 M0.02 152.4 C21.79 127.36, 43.55 102.33, 57.76 85.98 M0.02 152.4 C12.73 137.78, 25.43 123.17, 57.76 85.98 M-0.24 158.8 C15.74 140.41, 31.72 122.03, 58.15 91.63 M-0.24 158.8 C22 133.21, 44.24 107.63, 58.15 91.63 M0.16 164.44 C15.32 146.99, 30.49 129.55, 57.89 98.02 M0.16 164.44 C22.83 138.35, 45.51 112.27, 57.89 98.02 M-0.1 170.84 C13.95 154.67, 28 138.5, 58.29 103.67 M-0.1 170.84 C20.49 147.15, 41.08 123.46, 58.29 103.67 M0.29 176.48 C19.17 154.76, 38.04 133.05, 58.02 110.06 M0.29 176.48 C20.65 153.06, 41.01 129.64, 58.02 110.06 M0.03 182.88 C20.45 159.39, 40.86 135.9, 57.76 116.46 M0.03 182.88 C19.58 160.38, 39.14 137.89, 57.76 116.46 M-0.23 189.27 C14.75 172.04, 29.72 154.81, 58.16 122.11 M-0.23 189.27 C15.56 171.11, 31.36 152.94, 58.16 122.11 M0.16 194.92 C21.27 170.64, 42.38 146.36, 57.9 128.5 M0.16 194.92 C22.14 169.63, 44.12 144.35, 57.9 128.5 M-0.1 201.32 C23.01 174.73, 46.12 148.15, 58.29 134.15 M-0.1 201.32 C19.42 178.86, 38.94 156.41, 58.29 134.15 M0.3 206.96 C19.77 184.55, 39.25 162.14, 58.03 140.54 M0.3 206.96 C16.92 187.84, 33.54 168.72, 58.03 140.54 M0.03 213.36 C14.29 196.95, 28.55 180.55, 57.77 146.94 M0.03 213.36 C14.42 196.81, 28.81 180.26, 57.77 146.94 M-0.23 219.75 C19.49 197.07, 39.21 174.38, 58.16 152.59 M-0.23 219.75 C19.41 197.16, 39.06 174.56, 58.16 152.59 M0.17 225.4 C21.54 200.81, 42.92 176.22, 57.9 158.98 M0.17 225.4 C19.65 202.98, 39.14 180.57, 57.9 158.98 M-0.09 231.8 C19.94 208.75, 39.97 185.7, 58.29 164.63 M-0.09 231.8 C21.49 206.96, 43.08 182.13, 58.29 164.63 M0.3 237.44 C16.67 218.61, 33.03 199.78, 58.03 171.02 M0.3 237.44 C14.08 221.58, 27.87 205.73, 58.03 171.02 M0.04 243.84 C19.54 221.4, 39.04 198.97, 57.77 177.42 M0.04 243.84 C17.27 224.02, 34.49 204.2, 57.77 177.42 M-0.22 250.23 C20.93 225.89, 42.09 201.56, 58.17 183.06 M-0.22 250.23 C12.02 236.15, 24.26 222.07, 58.17 183.06 M0.17 255.88 C12.52 241.67, 24.87 227.46, 57.91 189.46 M0.17 255.88 C11.74 242.57, 23.3 229.27, 57.91 189.46 M-0.09 262.27 C19.79 239.41, 39.66 216.54, 58.3 195.11 M-0.09 262.27 C13 247.22, 26.09 232.16, 58.3 195.11 M0.3 267.92 C15.98 249.89, 31.65 231.86, 58.04 201.5 M0.3 267.92 C13.03 253.28, 25.76 238.64, 58.04 201.5 M0.04 274.32 C12.11 260.44, 24.17 246.56, 57.78 207.9 M0.04 274.32 C15.82 256.17, 31.6 238.02, 57.78 207.9 M-0.22 280.71 C18.35 259.35, 36.92 237.99, 58.17 213.54 M-0.22 280.71 C15.6 262.51, 31.42 244.31, 58.17 213.54 M0.18 286.36 C18.49 265.29, 36.8 244.22, 57.91 219.94 M0.18 286.36 C15.5 268.73, 30.81 251.11, 57.91 219.94 M-0.08 292.75 C21.48 267.95, 43.04 243.14, 58.3 225.58 M-0.08 292.75 C19.26 270.5, 38.6 248.26, 58.3 225.58 M0.31 298.4 C16.02 280.33, 31.72 262.26, 58.04 231.98 M0.31 298.4 C19.12 276.76, 37.93 255.12, 58.04 231.98 M0.05 304.8 C20.17 281.64, 40.3 258.49, 57.78 238.38 M0.05 304.8 C20.13 281.69, 40.21 258.59, 57.78 238.38 M1.76 308.93 C15.2 293.46, 28.64 278, 58.18 244.02 M1.76 308.93 C18.53 289.63, 35.3 270.33, 58.18 244.02 M7.4 308.53 C26.95 286.04, 46.51 263.55, 57.91 250.42 M7.4 308.53 C24.3 289.09, 41.2 269.65, 57.91 250.42 M12.39 308.89 C23.34 296.3, 34.29 283.7, 58.31 256.06 M12.39 308.89 C23.39 296.23, 34.4 283.57, 58.31 256.06 M18.03 308.5 C30.99 293.59, 43.94 278.69, 58.05 262.46 M18.03 308.5 C28.92 295.97, 39.82 283.44, 58.05 262.46 M23.02 308.86 C31.81 298.74, 40.61 288.62, 57.79 268.86 M23.02 308.86 C34.49 295.66, 45.96 282.46, 57.79 268.86 M28.66 308.47 C34.72 301.49, 40.79 294.51, 58.18 274.5 M28.66 308.47 C34.83 301.37, 41 294.27, 58.18 274.5 M33.65 308.83 C41.42 299.89, 49.19 290.95, 57.92 280.9 M33.65 308.83 C42.44 298.7, 51.24 288.58, 57.92 280.9 M39.29 308.43 C46.65 299.97, 54 291.5, 58.31 286.54 M39.29 308.43 C46.14 300.55, 53 292.66, 58.31 286.54 M44.28 308.79 C47.52 305.05, 50.77 301.31, 58.05 292.94 M44.28 308.79 C47.7 304.85, 51.12 300.92, 58.05 292.94 M49.92 308.4 C51.73 306.31, 53.54 304.23, 57.79 299.34 M49.92 308.4 C51.56 306.51, 53.2 304.62, 57.79 299.34 M54.91 308.76 C55.74 307.8, 56.57 306.84, 58.19 304.98 M54.91 308.76 C55.94 307.56, 56.98 306.37, 58.19 304.98" stroke="#fa6969" stroke-width="0.5" fill="none"></path><path d="M0 0 C18.02 0, 36.04 0, 57.6 0 M0 0 C13.12 0, 26.24 0, 57.6 0 M57.6 0 C57.6 62.22, 57.6 124.43, 57.6 308 M57.6 0 C57.6 101.33, 57.6 202.65, 57.6 308 M57.6 308 C37.76 308, 17.93 308, 0 308 M57.6 308 C38.95 308, 20.3 308, 0 308 M0 308 C0 212.48, 0 116.96, 0 0 M0 308 C0 188.65, 0 69.3, 0 0" stroke="#ff8383" stroke-width="1" fill="none"></path></g><g stroke-linecap="round" transform="translate(373.21027198903823 86.00003080372295) rotate(0 28.800018310546818 165.19999694824216)"><path d="M0 0 C0 0, 0 0, 0 0 M0 0 C0 0, 0 0, 0 0 M-0.26 6.4 C1.61 4.25, 3.48 2.1, 4.99 0.36 M-0.26 6.4 C0.81 5.17, 1.87 3.94, 4.99 0.36 M0.13 12.04 C2.91 8.85, 5.69 5.65, 10.63 -0.03 M0.13 12.04 C2.65 9.14, 5.17 6.24, 10.63 -0.03 M-0.13 18.44 C4.86 12.7, 9.85 6.97, 15.62 0.33 M-0.13 18.44 C5.78 11.64, 11.69 4.84, 15.62 0.33 M0.27 24.08 C7.98 15.2, 15.7 6.32, 21.26 -0.07 M0.27 24.08 C5.42 18.15, 10.57 12.22, 21.26 -0.07 M0 30.48 C8.32 20.91, 16.64 11.34, 26.25 0.29 M0 30.48 C9.19 19.92, 18.37 9.35, 26.25 0.29 M-0.26 36.88 C11.6 23.24, 23.45 9.6, 31.89 -0.1 M-0.26 36.88 C7.51 27.94, 15.28 19, 31.89 -0.1 M0.14 42.52 C14.48 26.02, 28.82 9.52, 36.88 0.26 M0.14 42.52 C8.14 33.31, 16.15 24.1, 36.88 0.26 M-0.12 48.92 C15.75 30.66, 31.63 12.39, 42.52 -0.14 M-0.12 48.92 C13.12 33.68, 26.37 18.44, 42.52 -0.14 M0.27 54.56 C18.56 33.52, 36.85 12.48, 47.51 0.22 M0.27 54.56 C18.1 34.05, 35.93 13.54, 47.51 0.22 M0.01 60.96 C13.28 45.7, 26.54 30.43, 53.15 -0.17 M0.01 60.96 C15.53 43.1, 31.06 25.24, 53.15 -0.17 M-0.25 67.36 C15.81 48.87, 31.88 30.39, 58.14 0.19 M-0.25 67.36 C13.47 51.57, 27.19 35.79, 58.14 0.19 M0.14 73 C19.75 50.44, 39.37 27.88, 57.88 6.59 M0.14 73 C16.53 54.15, 32.91 35.3, 57.88 6.59 M-0.12 79.4 C13.84 63.34, 27.8 47.28, 58.27 12.23 M-0.12 79.4 C17.65 58.95, 35.42 38.51, 58.27 12.23 M0.28 85.04 C20.38 61.91, 40.49 38.78, 58.01 18.63 M0.28 85.04 C19.96 62.39, 39.65 39.74, 58.01 18.63 M0.01 91.44 C22.01 66.14, 44 40.84, 57.75 25.02 M0.01 91.44 C17.76 71.02, 35.51 50.61, 57.75 25.02 M-0.25 97.84 C14.27 81.14, 28.78 64.44, 58.14 30.67 M-0.25 97.84 C21.76 72.52, 43.77 47.2, 58.14 30.67 M0.15 103.48 C12.85 88.86, 25.56 74.25, 57.88 37.06 M0.15 103.48 C15.95 85.3, 31.75 67.12, 57.88 37.06 M-0.11 109.88 C22.13 84.29, 44.37 58.71, 58.28 42.71 M-0.11 109.88 C15.22 92.23, 30.56 74.59, 58.28 42.71 M0.28 115.52 C22.96 89.44, 45.63 63.35, 58.01 49.11 M0.28 115.52 C14.18 99.53, 28.07 83.55, 58.01 49.11 M0.02 121.92 C20.38 98.49, 40.74 75.07, 57.75 55.5 M0.02 121.92 C18.9 100.2, 37.77 78.49, 57.75 55.5 M-0.24 128.32 C20.35 104.63, 40.94 80.94, 58.15 61.15 M-0.24 128.32 C20.41 104.56, 41.06 80.81, 58.15 61.15 M0.15 133.96 C19.71 111.47, 39.26 88.97, 57.89 67.54 M0.15 133.96 C14.96 116.92, 29.77 99.89, 57.89 67.54 M-0.11 140.36 C15.69 122.19, 31.48 104.02, 58.28 73.19 M-0.11 140.36 C21.24 115.8, 42.58 91.24, 58.28 73.19 M0.29 146 C22.27 120.71, 44.25 95.43, 58.02 79.59 M0.29 146 C23.13 119.72, 45.98 93.43, 58.02 79.59 M0.02 152.4 C19.32 130.19, 38.63 107.99, 57.76 85.98 M0.02 152.4 C19.5 129.99, 38.98 107.58, 57.76 85.98 M-0.24 158.8 C16.57 139.46, 33.38 120.12, 58.15 91.63 M-0.24 158.8 C14.18 142.21, 28.61 125.62, 58.15 91.63 M0.16 164.44 C14.54 147.89, 28.93 131.34, 57.89 98.02 M0.16 164.44 C19.66 142.01, 39.15 119.58, 57.89 98.02 M-0.1 170.84 C19.54 148.24, 39.18 125.65, 58.29 103.67 M-0.1 170.84 C21.51 145.97, 43.13 121.1, 58.29 103.67 M0.29 176.48 C19.77 154.07, 39.26 131.65, 58.02 110.06 M0.29 176.48 C20.1 153.69, 39.91 130.9, 58.02 110.06 M0.03 182.88 C21.37 158.32, 42.71 133.77, 57.76 116.46 M0.03 182.88 C16.4 164.05, 32.76 145.22, 57.76 116.46 M-0.23 189.27 C13.71 173.24, 27.65 157.2, 58.16 122.11 M-0.23 189.27 C19.49 166.59, 39.21 143.9, 58.16 122.11 M0.16 194.92 C17.39 175.1, 34.62 155.28, 57.9 128.5 M0.16 194.92 C21.08 170.85, 42 146.79, 57.9 128.5 M-0.1 201.32 C12.14 187.23, 24.38 173.15, 58.29 134.15 M-0.1 201.32 C12.39 186.95, 24.88 172.58, 58.29 134.15 M0.3 206.96 C11.86 193.66, 23.42 180.35, 58.03 140.54 M0.3 206.96 C19.95 184.35, 39.6 161.74, 58.03 140.54 M0.03 213.36 C12.97 198.47, 25.91 183.58, 57.77 146.94 M0.03 213.36 C15.7 195.33, 31.37 177.3, 57.77 146.94 M-0.23 219.75 C12.64 204.95, 25.51 190.14, 58.16 152.59 M-0.23 219.75 C11.97 205.72, 24.18 191.68, 58.16 152.59 M0.17 225.4 C15.94 207.25, 31.72 189.1, 57.9 158.98 M0.17 225.4 C18.53 204.28, 36.89 183.15, 57.9 158.98 M-0.09 231.8 C15.73 213.6, 31.55 195.39, 58.29 164.63 M-0.09 231.8 C18.43 210.49, 36.95 189.18, 58.29 164.63 M0.3 237.44 C15.62 219.82, 30.94 202.19, 58.03 171.02 M0.3 237.44 C21.62 212.91, 42.94 188.38, 58.03 171.02 M0.04 243.84 C19.16 221.84, 38.29 199.84, 57.77 177.42 M0.04 243.84 C15.74 225.77, 31.45 207.7, 57.77 177.42 M-0.22 250.23 C18.8 228.35, 37.82 206.47, 58.17 183.06 M-0.22 250.23 C20.13 226.82, 40.49 203.4, 58.17 183.06 M0.17 255.88 C20.25 232.77, 40.34 209.67, 57.91 189.46 M0.17 255.88 C13.93 240.05, 27.68 224.23, 57.91 189.46 M-0.09 262.27 C17.27 242.3, 34.63 222.33, 58.3 195.11 M-0.09 262.27 C22.51 236.27, 45.11 210.27, 58.3 195.11 M0.3 267.92 C19.62 245.7, 38.93 223.48, 58.04 201.5 M0.3 267.92 C14.07 252.08, 27.84 236.24, 58.04 201.5 M0.04 274.32 C13.88 258.4, 27.72 242.48, 57.78 207.9 M0.04 274.32 C18.74 252.81, 37.43 231.31, 57.78 207.9 M-0.22 280.71 C15.68 262.43, 31.57 244.15, 58.17 213.54 M-0.22 280.71 C14.56 263.72, 29.33 246.72, 58.17 213.54 M0.18 286.36 C19.23 264.44, 38.28 242.52, 57.91 219.94 M0.18 286.36 C12.04 272.71, 23.9 259.07, 57.91 219.94 M-0.08 292.75 C12.12 278.72, 24.32 264.68, 58.3 225.58 M-0.08 292.75 C18.61 271.25, 37.3 249.75, 58.3 225.58 M0.31 298.4 C21.23 274.33, 42.16 250.26, 58.04 231.98 M0.31 298.4 C22.64 272.71, 44.96 247.03, 58.04 231.98 M0.05 304.8 C20.84 280.87, 41.64 256.95, 57.78 238.38 M0.05 304.8 C13.66 289.13, 27.28 273.47, 57.78 238.38 M-0.21 311.19 C14.29 294.51, 28.79 277.83, 58.18 244.02 M-0.21 311.19 C13.22 295.74, 26.65 280.29, 58.18 244.02 M0.18 316.84 C12.21 303, 24.24 289.16, 57.91 250.42 M0.18 316.84 C14.85 299.97, 29.51 283.1, 57.91 250.42 M-0.08 323.23 C18.4 301.98, 36.87 280.72, 58.31 256.06 M-0.08 323.23 C11.92 309.42, 23.93 295.61, 58.31 256.06 M0.31 328.88 C12.04 315.39, 23.77 301.9, 58.05 262.46 M0.31 328.88 C22.61 303.23, 44.91 277.58, 58.05 262.46 M3.99 330.75 C15.42 317.6, 26.84 304.46, 57.79 268.86 M3.99 330.75 C25.05 306.52, 46.11 282.29, 57.79 268.86 M9.63 330.35 C22.32 315.76, 35.01 301.16, 58.18 274.5 M9.63 330.35 C24.29 313.49, 38.95 296.62, 58.18 274.5 M14.62 330.71 C31.91 310.83, 49.19 290.94, 57.92 280.9 M14.62 330.71 C30.8 312.1, 46.97 293.49, 57.92 280.9 M20.26 330.32 C30.43 318.63, 40.59 306.94, 58.31 286.54 M20.26 330.32 C28.96 320.32, 37.65 310.31, 58.31 286.54 M25.25 330.68 C33.68 320.98, 42.11 311.28, 58.05 292.94 M25.25 330.68 C36.58 317.64, 47.92 304.6, 58.05 292.94 M30.89 330.28 C40.89 318.78, 50.88 307.28, 57.79 299.34 M30.89 330.28 C37.64 322.52, 44.39 314.75, 57.79 299.34 M35.88 330.64 C44.43 320.81, 52.98 310.98, 58.19 304.98 M35.88 330.64 C40.54 325.28, 45.2 319.92, 58.19 304.98 M41.52 330.25 C46.33 324.71, 51.15 319.18, 57.92 311.38 M41.52 330.25 C45 326.25, 48.48 322.24, 57.92 311.38 M46.51 330.61 C49.96 326.64, 53.41 322.67, 58.32 317.02 M46.51 330.61 C49.73 326.9, 52.95 323.2, 58.32 317.02 M52.15 330.21 C53.44 328.73, 54.73 327.25, 58.06 323.42 M52.15 330.21 C53.41 328.77, 54.67 327.32, 58.06 323.42 M57.14 330.57 C57.35 330.34, 57.55 330.1, 57.8 329.82 M57.14 330.57 C57.37 330.31, 57.61 330.04, 57.8 329.82" stroke="#fa6969" stroke-width="0.5" fill="none"></path><path d="M0 0 C17.68 0, 35.36 0, 57.6 0 M0 0 C12.48 0, 24.96 0, 57.6 0 M57.6 0 C57.6 101.4, 57.6 202.81, 57.6 330.4 M57.6 0 C57.6 80.96, 57.6 161.93, 57.6 330.4 M57.6 330.4 C36.26 330.4, 14.92 330.4, 0 330.4 M57.6 330.4 C42.44 330.4, 27.29 330.4, 0 330.4 M0 330.4 C0 224.96, 0 119.51, 0 0 M0 330.4 C0 214.19, 0 97.98, 0 0" stroke="#ff8383" stroke-width="1" fill="none"></path></g><g stroke-linecap="round" transform="translate(433.0974449890382 64.44951449317603) rotate(0 28.800018310546875 175.60000610351562)"><path d="M0 0 C0 0, 0 0, 0 0 M0 0 C0 0, 0 0, 0 0 M-0.26 6.4 C0.89 5.07, 2.05 3.74, 4.99 0.36 M-0.26 6.4 C1.18 4.75, 2.61 3.09, 4.99 0.36 M0.13 12.04 C4.13 7.44, 8.13 2.84, 10.63 -0.03 M0.13 12.04 C2.89 8.87, 5.65 5.7, 10.63 -0.03 M-0.13 18.44 C6.06 11.32, 12.24 4.21, 15.62 0.33 M-0.13 18.44 C3.66 14.08, 7.45 9.72, 15.62 0.33 M0.27 24.08 C7.67 15.56, 15.08 7.05, 21.26 -0.07 M0.27 24.08 C7.13 16.19, 14 8.29, 21.26 -0.07 M0 30.48 C9.26 19.83, 18.51 9.19, 26.25 0.29 M0 30.48 C9.29 19.8, 18.57 9.13, 26.25 0.29 M-0.26 36.88 C10.63 24.35, 21.52 11.83, 31.89 -0.1 M-0.26 36.88 C7.99 27.39, 16.24 17.9, 31.89 -0.1 M0.14 42.52 C10.08 31.09, 20.01 19.66, 36.88 0.26 M0.14 42.52 C13.57 27.07, 27 11.62, 36.88 0.26 M-0.12 48.92 C16.11 30.24, 32.35 11.56, 42.52 -0.14 M-0.12 48.92 C16.75 29.5, 33.63 10.09, 42.52 -0.14 M0.27 54.56 C16.06 36.4, 31.85 18.23, 47.51 0.22 M0.27 54.56 C16.21 36.23, 32.15 17.89, 47.51 0.22 M0.01 60.96 C15.31 43.36, 30.61 25.76, 53.15 -0.17 M0.01 60.96 C13.13 45.86, 26.26 30.76, 53.15 -0.17 M-0.25 67.36 C14.3 50.62, 28.85 33.88, 58.14 0.19 M-0.25 67.36 C19.47 44.67, 39.19 21.99, 58.14 0.19 M0.14 73 C19.56 50.66, 38.98 28.32, 57.88 6.59 M0.14 73 C21.52 48.41, 42.89 23.82, 57.88 6.59 M-0.12 79.4 C19.59 56.73, 39.29 34.06, 58.27 12.23 M-0.12 79.4 C19.92 56.35, 39.95 33.31, 58.27 12.23 M0.28 85.04 C21.62 60.49, 42.96 35.94, 58.01 18.63 M0.28 85.04 C16.64 66.21, 33.01 47.39, 58.01 18.63 M0.01 91.44 C13.8 75.58, 27.58 59.73, 57.75 25.02 M0.01 91.44 C19.52 69, 39.02 46.57, 57.75 25.02 M-0.25 97.84 C17.18 77.79, 34.6 57.75, 58.14 30.67 M-0.25 97.84 C20.91 73.5, 42.07 49.16, 58.14 30.67 M0.15 103.48 C12.25 89.55, 24.36 75.63, 57.88 37.06 M0.15 103.48 C12.5 89.27, 24.85 75.06, 57.88 37.06 M-0.11 109.88 C11.58 96.42, 23.28 82.97, 58.28 42.71 M-0.11 109.88 C19.76 87.01, 39.64 64.15, 58.28 42.71 M0.28 115.52 C13.22 100.63, 26.16 85.75, 58.01 49.11 M0.28 115.52 C15.95 97.49, 31.62 79.47, 58.01 49.11 M0.02 121.92 C12.75 107.28, 25.47 92.64, 57.75 55.5 M0.02 121.92 C12.08 108.04, 24.15 94.16, 57.75 55.5 M-0.24 128.32 C15.71 109.96, 31.67 91.6, 58.15 61.15 M-0.24 128.32 C18.33 106.95, 36.9 85.59, 58.15 61.15 M0.15 133.96 C15.8 115.96, 31.44 97.97, 57.89 67.54 M0.15 133.96 C18.47 112.89, 36.78 91.83, 57.89 67.54 M-0.11 140.36 C15.38 122.53, 30.88 104.71, 58.28 73.19 M-0.11 140.36 C21.45 115.55, 43.02 90.74, 58.28 73.19 M0.29 146 C19.41 124, 38.53 102, 58.02 79.59 M0.29 146 C15.99 127.93, 31.7 109.86, 58.02 79.59 M0.02 152.4 C18.83 130.76, 37.64 109.12, 57.76 85.98 M0.02 152.4 C20.15 129.25, 40.28 106.09, 57.76 85.98 M-0.24 158.8 C20.07 135.43, 40.38 112.06, 58.15 91.63 M-0.24 158.8 C13.67 142.79, 27.59 126.79, 58.15 91.63 M0.16 164.44 C17.32 144.69, 34.49 124.95, 57.89 98.02 M0.16 164.44 C22.5 138.73, 44.85 113.02, 57.89 98.02 M-0.1 170.84 C19.43 148.37, 38.96 125.9, 58.29 103.67 M-0.1 170.84 C13.82 154.82, 27.74 138.8, 58.29 103.67 M0.29 176.48 C14.13 160.56, 27.97 144.64, 58.02 110.06 M0.29 176.48 C18.98 154.98, 37.67 133.47, 58.02 110.06 M0.03 182.88 C15.74 164.8, 31.46 146.72, 57.76 116.46 M0.03 182.88 C14.64 166.07, 29.24 149.27, 57.76 116.46 M-0.23 189.27 C19.04 167.11, 38.3 144.94, 58.16 122.11 M-0.23 189.27 C11.76 175.48, 23.76 161.68, 58.16 122.11 M0.16 194.92 C12.23 181.04, 24.29 167.16, 57.9 128.5 M0.16 194.92 C18.64 173.66, 37.13 152.39, 57.9 128.5 M-0.1 201.32 C21.06 176.97, 42.22 152.63, 58.29 134.15 M-0.1 201.32 C22.48 175.34, 45.06 149.37, 58.29 134.15 M0.3 206.96 C21.09 183.03, 41.89 159.11, 58.03 140.54 M0.3 206.96 C13.91 191.29, 27.53 175.63, 58.03 140.54 M0.03 213.36 C14.37 196.86, 28.71 180.36, 57.77 146.94 M0.03 213.36 C13.31 198.08, 26.59 182.8, 57.77 146.94 M-0.23 219.75 C11.94 205.76, 24.1 191.76, 58.16 152.59 M-0.23 219.75 C14.6 202.69, 29.43 185.63, 58.16 152.59 M0.17 225.4 C18.44 204.38, 36.71 183.36, 57.9 158.98 M0.17 225.4 C12.04 211.74, 23.91 198.09, 57.9 158.98 M-0.09 231.8 C11.76 218.15, 23.62 204.51, 58.29 164.63 M-0.09 231.8 C22.46 205.85, 45.01 179.91, 58.29 164.63 M0.3 237.44 C12.56 223.33, 24.83 209.23, 58.03 171.02 M0.3 237.44 C22.9 211.44, 45.5 185.44, 58.03 171.02 M0.04 243.84 C15.13 226.48, 30.21 209.12, 57.77 177.42 M0.04 243.84 C17.47 223.78, 34.9 203.73, 57.77 177.42 M-0.22 250.23 C23.09 223.42, 46.4 196.6, 58.17 183.06 M-0.22 250.23 C21.59 225.14, 43.4 200.05, 58.17 183.06 M0.17 255.88 C15.59 238.14, 31.01 220.4, 57.91 189.46 M0.17 255.88 C13.36 240.7, 26.56 225.53, 57.91 189.46 M-0.09 262.27 C14.92 245.01, 29.93 227.75, 58.3 195.11 M-0.09 262.27 C20.09 239.07, 40.26 215.86, 58.3 195.11 M0.3 267.92 C21.76 243.24, 43.21 218.56, 58.04 201.5 M0.3 267.92 C14.79 251.25, 29.28 234.59, 58.04 201.5 M0.04 274.32 C22.17 248.87, 44.29 223.42, 57.78 207.9 M0.04 274.32 C12.1 260.45, 24.16 246.58, 57.78 207.9 M-0.22 280.71 C16.91 261.01, 34.04 241.3, 58.17 213.54 M-0.22 280.71 C12.17 266.47, 24.55 252.22, 58.17 213.54 M0.18 286.36 C17.05 266.95, 33.92 247.54, 57.91 219.94 M0.18 286.36 C15.93 268.24, 31.68 250.12, 57.91 219.94 M-0.08 292.75 C12.64 278.12, 25.36 263.48, 58.3 225.58 M-0.08 292.75 C12.34 278.46, 24.77 264.17, 58.3 225.58 M0.31 298.4 C18.55 277.42, 36.78 256.44, 58.04 231.98 M0.31 298.4 C20.78 274.85, 41.25 251.31, 58.04 231.98 M0.05 304.8 C17.26 284.99, 34.47 265.19, 57.78 238.38 M0.05 304.8 C18.03 284.11, 36.02 263.42, 57.78 238.38 M-0.21 311.19 C17.48 290.84, 35.17 270.49, 58.18 244.02 M-0.21 311.19 C16.07 292.46, 32.36 273.72, 58.18 244.02 M0.18 316.84 C20.62 293.33, 41.05 269.82, 57.91 250.42 M0.18 316.84 C13.14 301.92, 26.11 287.01, 57.91 250.42 M-0.08 323.23 C18.58 301.76, 37.25 280.29, 58.31 256.06 M-0.08 323.23 C22.04 297.79, 44.16 272.34, 58.31 256.06 M0.31 328.88 C21.83 304.13, 43.34 279.38, 58.05 262.46 M0.31 328.88 C13.36 313.86, 26.42 298.85, 58.05 262.46 M0.05 335.27 C20.21 312.08, 40.37 288.89, 57.79 268.86 M0.05 335.27 C22.84 309.06, 45.62 282.85, 57.79 268.86 M-0.21 341.67 C11.96 327.67, 24.14 313.67, 58.18 274.5 M-0.21 341.67 C14.27 325.01, 28.75 308.36, 58.18 274.5 M0.19 347.32 C22.82 321.28, 45.45 295.24, 57.92 280.9 M0.19 347.32 C21.83 322.42, 43.47 297.52, 57.92 280.9 M1.89 351.45 C17.86 333.08, 33.83 314.7, 58.31 286.54 M1.89 351.45 C23.34 326.77, 44.79 302.1, 58.31 286.54 M6.88 351.81 C25.6 330.27, 44.32 308.74, 58.05 292.94 M6.88 351.81 C26.1 329.7, 45.32 307.59, 58.05 292.94 M12.52 351.41 C25.43 336.57, 38.34 321.72, 57.79 299.34 M12.52 351.41 C29.28 332.14, 46.03 312.86, 57.79 299.34 M17.51 351.77 C25.87 342.16, 34.23 332.55, 58.19 304.98 M17.51 351.77 C32.19 334.89, 46.86 318.01, 58.19 304.98 M23.15 351.38 C32.56 340.55, 41.97 329.73, 57.92 311.38 M23.15 351.38 C34.39 338.45, 45.64 325.52, 57.92 311.38 M28.14 351.74 C39.09 339.14, 50.05 326.54, 58.32 317.02 M28.14 351.74 C37.27 341.24, 46.39 330.74, 58.32 317.02 M33.78 351.35 C42.59 341.22, 51.39 331.09, 58.06 323.42 M33.78 351.35 C38.71 345.68, 43.63 340.02, 58.06 323.42 M38.77 351.71 C44.62 344.98, 50.47 338.25, 57.8 329.82 M38.77 351.71 C44.1 345.58, 49.42 339.45, 57.8 329.82 M44.41 351.31 C47.88 347.32, 51.34 343.34, 58.19 335.46 M44.41 351.31 C48.96 346.08, 53.5 340.86, 58.19 335.46 M49.4 351.67 C51.32 349.46, 53.25 347.25, 57.93 341.86 M49.4 351.67 C52.65 347.94, 55.9 344.2, 57.93 341.86 M55.04 351.28 C56.01 350.16, 56.98 349.05, 58.32 347.5 M55.04 351.28 C55.97 350.21, 56.9 349.14, 58.32 347.5" stroke="#fa6969" stroke-width="0.5" fill="none"></path><path d="M0 0 C19.57 0, 39.13 0, 57.6 0 M0 0 C16.35 0, 32.7 0, 57.6 0 M57.6 0 C57.6 83.96, 57.6 167.92, 57.6 351.2 M57.6 0 C57.6 106.89, 57.6 213.79, 57.6 351.2 M57.6 351.2 C37.54 351.2, 17.48 351.2, 0 351.2 M57.6 351.2 C37.96 351.2, 18.31 351.2, 0 351.2 M0 351.2 C0 217.41, 0 83.62, 0 0 M0 351.2 C0 243.24, 0 135.29, 0 0" stroke="#ff8383" stroke-width="1" fill="none"></path></g></svg>